<?xml version="1.0" encoding="utf-8" standalone="no"?><!DOCTYPE svg PUBLIC "-//W3C//DTD SVG 1.1//EN" "http://www.w3.org/Graphics/SVG/1.1/DTD/svg11.dtd">
<svg preserveAspectRatio="xMinYMin meet" width="100%" height="100%" viewBox="0 0 560.000 420.000"  version="1.1" xmlns="http://www.w3.org/2000/svg" xmlns:xlink="http://www.w3.org/1999/xlink">
  <desc>Matlab Figure Converted by PLOT2SVG written by Juerg Schwizer</desc>
  <g id="topgroup">
  <rect x="0" y="0" width="560.000" height="420.000" fill="#ffffff" stroke="none" />
  <g id ="ID000000">
  <clipPath id="ID000001">
    <rect x="72.800" y="31.500" width="434.000" height="342.300"/>
  </clipPath>
      <polygon fill="#ffffff" fill-opacity="1.00" stroke="none" stroke-width="0.5pt" stroke-opacity="1.00" stroke-dasharray="none" points="72.800,373.800 506.800,373.800 506.800,31.500 72.800,31.500 "/>
      <polygon fill="#ffffff" fill-opacity="1.00" stroke="none" stroke-width="0.5pt" stroke-opacity="1.00" stroke-dasharray="none" points="72.800,31.500 506.800,31.500 506.800,31.500 72.800,31.500 "/>
      <polygon fill="#ffffff" fill-opacity="1.00" stroke="none" stroke-width="0.5pt" stroke-opacity="1.00" stroke-dasharray="none" points="72.800,373.800 72.800,373.800 72.800,31.500 72.800,31.500 "/>
    <g>
<g id="ID000002" clip-path="url(#ID000001)" >
      <polyline fill="none" stroke="#0000ff" stroke-width="0.5pt" stroke-dasharray="none" points="121.871,373.717 122.266,373.800 122.662,373.800 123.057,373.800 123.453,373.800 123.848,373.800 124.244,373.800 124.639,373.717 125.035,373.800 125.430,373.800 125.826,373.800 126.221,373.800 126.617,373.800 127.012,373.800 127.408,373.800 127.803,373.717 128.199,373.800 128.594,373.800 128.990,373.800 129.385,373.717 129.781,373.800 130.176,373.717 130.572,373.800 130.967,373.800 131.363,373.800 131.758,373.800 132.154,373.800 132.549,373.800 132.945,373.800 133.340,373.800 133.736,373.800 134.131,373.800 134.527,373.800 134.922,373.800 135.318,373.800 135.713,373.800 136.109,373.800 136.504,373.717 136.900,373.800 137.295,373.800 137.691,373.800 138.086,373.717 138.482,373.800 138.877,373.800 139.273,373.717 139.668,373.800 140.064,373.800 140.459,373.800 140.855,373.800 141.250,373.717 141.646,373.800 142.041,373.800 142.437,373.800 142.832,373.800 143.228,373.800 143.623,373.800 144.019,373.717 144.414,373.717 144.810,373.800 145.205,373.717 145.601,373.717 145.996,373.717 146.392,373.800 146.787,373.800 147.183,373.717 147.578,373.800 147.974,373.717 148.369,373.717 148.764,373.800 149.160,373.800 149.555,373.800 149.951,373.800 150.346,373.800 150.742,373.800 151.137,373.717 151.533,373.800 151.928,373.800 152.324,373.717 152.719,373.800 153.115,373.550 153.510,373.800 153.906,373.717 154.301,373.717 154.697,373.800 155.092,373.800 155.488,373.717 155.883,373.717 156.279,373.800 156.674,373.800 157.070,373.800 157.465,373.800 157.861,373.800 158.256,373.800 158.652,373.717 159.047,373.800 159.443,373.717 159.838,373.633 160.234,373.633 160.629,373.800 161.025,373.800 161.420,373.800 161.816,373.717 162.211,373.717 162.607,373.633 163.002,373.717 163.398,373.800 163.793,373.717 164.189,373.717 164.584,373.467 164.980,373.717 165.375,373.467 165.771,373.633 166.166,373.467 166.562,373.633 166.957,373.633 167.353,373.633 167.748,373.633 168.144,373.550 168.539,373.550 168.935,373.717 169.330,373.383 169.726,373.550 170.121,373.717 170.517,373.467 170.912,373.550 171.308,373.717 171.703,373.550 172.099,373.550 172.494,373.633 172.890,373.550 173.285,373.550 173.681,373.633 174.076,373.550 174.472,373.383 174.867,373.383 175.263,373.550 175.658,373.383 176.053,373.550 176.449,373.550 176.844,373.467 177.240,373.467 177.635,373.383 178.031,373.800 178.426,373.383 178.822,373.300 179.217,373.633 179.613,373.383 180.008,373.633 180.404,373.550 180.799,373.467 181.195,373.216 181.590,373.467 181.986,373.383 182.381,373.717 182.777,373.216 183.172,373.550 183.568,373.467 183.963,373.300 184.359,373.133 184.754,373.216 185.150,373.467 185.545,373.050 185.941,373.216 186.336,373.383 186.732,373.300 187.127,373.050 187.523,373.216 187.918,373.550 188.314,373.467 188.709,373.467 189.105,372.633 189.500,373.216 189.896,373.216 190.291,373.216 190.687,372.383 191.082,372.716 191.478,372.633 191.873,372.966 192.269,373.050 192.664,372.633 193.060,372.633 193.455,372.633 193.851,372.633 194.246,372.800 194.642,373.300 195.037,373.050 195.433,373.050 195.828,372.883 196.224,372.633 196.619,372.716 197.015,373.050 197.410,372.633 197.806,372.383 198.201,373.216 198.597,372.883 198.992,372.383 199.388,372.133 199.783,372.049 200.179,372.633 200.574,372.966 200.970,372.216 201.365,372.716 201.761,371.466 202.156,371.633 202.551,372.049 202.947,371.382 203.342,371.633 203.738,372.133 204.133,372.216 204.529,371.216 204.924,371.633 205.320,371.799 205.715,371.883 206.111,372.633 206.506,371.966 206.902,371.382 207.297,371.466 207.693,370.966 208.088,370.799 208.484,371.549 208.879,371.716 209.275,371.382 209.670,371.633 210.066,371.883 210.461,371.132 210.857,370.215 211.252,369.882 211.648,370.715 212.043,371.382 212.439,371.299 212.834,369.965 213.230,370.382 213.625,371.299 214.021,370.049 214.416,371.216 214.812,371.299 215.207,370.215 215.603,369.382 215.998,370.132 216.394,370.132 216.789,370.215 217.185,370.299 217.580,370.799 217.976,369.132 218.371,369.548 218.767,369.632 219.162,369.382 219.558,368.965 219.953,370.049 220.349,368.965 220.744,369.298 221.140,369.715 221.535,368.548 221.931,369.048 222.326,367.631 222.722,369.048 223.117,367.631 223.513,367.298 223.908,368.131 224.304,368.881 224.699,366.964 225.095,368.048 225.490,367.381 225.886,367.298 226.281,367.381 226.677,367.631 227.072,367.798 227.468,366.964 227.863,367.047 228.259,367.881 228.654,365.714 229.049,365.213 229.445,366.130 229.840,364.130 230.236,365.964 230.631,363.880 231.027,365.547 231.422,365.047 231.818,366.547 232.213,364.130 232.609,365.047 233.004,364.630 233.400,364.046 233.795,363.546 234.191,365.964 234.586,362.462 234.982,362.963 235.377,363.296 235.773,362.045 236.168,364.213 236.564,363.213 236.959,361.795 237.355,362.879 237.750,361.545 238.146,361.879 238.541,362.212 238.937,362.129 239.332,361.295 239.728,361.128 240.123,359.795 240.519,360.962 240.914,360.211 241.310,358.211 241.705,359.545 242.101,359.628 242.496,357.877 242.892,358.211 243.287,359.128 243.683,356.627 244.078,357.627 244.474,357.544 244.869,356.460 245.265,358.711 245.660,353.876 246.056,354.959 246.451,356.293 246.847,354.126 247.242,354.543 247.638,354.293 248.033,352.792 248.429,354.209 248.824,352.125 249.220,351.875 249.615,351.875 250.011,350.124 250.406,350.124 250.802,353.376 251.197,352.875 251.593,349.874 251.988,350.958 252.384,349.791 252.779,347.290 253.175,346.456 253.570,348.790 253.966,347.290 254.361,345.623 254.757,345.623 255.152,347.540 255.548,344.956 255.943,343.872 256.338,344.539 256.734,343.538 257.129,341.704 257.525,343.122 257.920,343.872 258.316,341.788 258.711,340.704 259.107,340.037 259.502,338.286 259.898,335.535 260.293,338.620 260.689,339.120 261.084,334.118 261.480,333.201 261.875,336.369 262.271,337.786 262.666,335.202 263.062,330.700 263.457,333.951 263.853,332.367 264.248,330.617 264.644,330.617 265.039,327.866 265.435,328.699 265.830,331.117 266.226,327.115 266.621,324.531 267.017,328.949 267.412,327.199 267.808,321.697 268.203,326.865 268.599,321.947 268.994,322.114 269.390,322.364 269.785,322.280 270.181,317.779 270.576,322.114 270.972,318.029 271.367,318.529 271.763,317.362 272.158,317.195 272.554,314.694 272.949,315.694 273.345,313.360 273.740,310.526 274.136,312.943 274.531,311.026 274.927,307.858 275.322,306.524 275.718,308.108 276.113,304.357 276.509,308.608 276.904,304.690 277.300,305.941 277.695,304.523 278.091,300.188 278.486,300.272 278.882,300.605 279.277,294.770 279.673,297.437 280.068,290.268 280.464,294.853 280.859,291.268 281.255,291.602 281.650,287.934 282.046,283.849 282.441,285.683 282.836,285.266 283.232,281.098 283.627,280.848 284.023,281.181 284.418,284.432 284.814,284.016 285.209,274.762 285.605,270.927 286.000,279.014 286.396,271.344 286.791,276.179 287.187,274.012 287.582,272.344 287.978,266.175 288.373,266.092 288.769,265.342 289.164,266.842 289.560,264.091 289.955,263.758 290.351,262.341 290.746,258.923 291.142,253.587 291.537,250.920 291.933,255.921 292.328,252.837 292.724,246.918 293.119,248.585 293.515,246.668 293.910,245.251 294.306,242.250 294.701,239.415 295.097,239.415 295.492,240.499 295.888,233.079 296.283,236.164 296.679,233.413 297.074,235.247 297.470,235.914 297.865,237.331 298.261,226.494 298.656,229.411 299.052,221.658 299.447,216.240 299.843,221.158 300.238,222.325 300.634,215.906 301.029,223.326 301.425,217.657 301.820,216.740 302.216,211.404 302.611,210.487 303.007,211.154 303.402,206.569 303.798,210.321 304.193,204.485 304.589,196.565 304.984,202.234 305.380,195.898 305.775,189.313 306.171,191.147 306.566,189.813 306.962,196.232 307.357,187.562 307.753,183.477 308.148,182.560 308.544,184.311 308.939,188.062 309.335,184.811 309.730,181.393 310.125,176.391 310.521,187.145 310.916,172.056 311.312,179.976 311.707,169.722 312.103,164.136 312.498,170.222 312.894,158.718 313.289,165.553 313.685,158.968 314.080,160.552 314.476,160.301 314.871,155.049 315.267,147.296 315.662,158.301 316.058,148.547 316.453,158.634 316.849,147.713 317.244,155.049 317.640,149.797 318.035,153.382 318.431,149.797 318.826,144.212 319.222,136.126 319.617,131.540 320.013,139.960 320.408,137.293 320.804,133.208 321.199,126.372 321.595,123.037 321.990,126.205 322.386,126.539 322.781,129.373 323.177,132.874 323.572,123.954 323.968,105.781 324.363,116.034 324.759,118.452 325.154,121.703 325.550,113.784 325.945,116.285 326.341,109.532 326.736,117.952 327.132,113.700 327.527,113.700 327.923,110.282 328.318,100.028 328.714,99.862 329.109,112.783 329.505,107.698 329.900,97.194 330.296,90.691 330.691,94.526 331.087,105.614 331.482,93.192 331.878,97.944 332.273,92.109 332.669,90.942 333.064,97.944 333.460,89.608 333.855,101.529 334.251,98.528 334.646,84.189 335.042,98.695 335.437,84.856 335.833,91.442 336.228,85.773 336.623,92.942 337.019,87.440 337.414,83.522 337.810,89.608 338.205,90.191 338.601,88.024 338.996,89.691 339.392,85.106 339.787,88.024 340.183,88.607 340.578,82.772 340.974,78.437 341.369,88.524 341.765,89.858 342.160,82.772 342.556,77.353 342.951,91.025 343.347,77.937 343.742,82.772 344.138,87.190 344.533,86.023 344.929,76.186 345.324,90.358 345.720,72.018 346.115,80.604 346.511,89.691 346.906,88.607 347.302,84.856 347.697,85.690 348.093,87.524 348.488,83.105 348.884,91.775 349.279,84.272 349.675,87.607 350.070,94.776 350.466,92.525 350.861,87.607 351.257,90.025 351.652,92.275 352.048,93.026 352.443,107.948 352.839,93.693 353.234,95.527 353.630,100.445 354.025,88.107 354.421,94.610 354.816,99.612 355.212,101.779 355.607,96.777 356.003,93.609 356.398,107.948 356.794,92.692 357.189,103.696 357.585,111.783 357.980,113.950 358.376,104.363 358.771,112.700 359.167,114.367 359.562,106.614 359.958,115.451 360.353,111.533 360.749,112.033 361.144,113.950 361.540,115.951 361.935,108.948 362.331,123.037 362.726,126.872 363.122,129.706 363.517,124.454 363.912,128.373 364.308,140.127 364.703,133.291 365.099,126.622 365.494,139.377 365.890,137.376 366.285,133.041 366.681,140.294 367.076,137.626 367.472,140.877 367.867,146.046 368.263,157.217 368.658,140.377 369.054,155.300 369.449,153.549 369.845,158.301 370.240,156.467 370.636,155.300 371.031,156.300 371.427,163.553 371.822,164.803 372.218,161.218 372.613,167.971 373.009,175.391 373.404,179.559 373.800,178.225 374.195,181.310 374.591,179.142 374.986,190.980 375.382,187.395 375.777,188.479 376.173,190.396 376.568,194.898 376.964,194.315 377.359,191.063 377.755,196.482 378.150,205.902 378.546,204.318 378.941,197.482 379.337,201.150 379.732,211.404 380.128,200.317 380.523,211.238 380.919,213.822 381.314,208.737 381.710,213.905 382.105,219.574 382.501,217.073 382.896,223.409 383.292,221.575 383.687,225.243 384.083,225.910 384.478,235.830 384.874,235.664 385.269,229.495 385.665,238.248 386.060,243.583 386.456,243.000 386.851,248.419 387.247,249.252 387.642,246.168 388.038,250.003 388.433,249.502 388.829,252.337 389.224,252.337 389.620,263.674 390.015,261.674 390.410,266.759 390.806,263.424 391.201,269.177 391.597,273.845 391.992,274.095 392.388,275.512 392.783,268.926 393.179,275.012 393.574,275.596 393.970,276.930 394.365,277.180 394.761,283.849 395.156,285.516 395.552,292.269 395.947,288.767 396.343,288.934 396.738,289.768 397.134,291.518 397.529,294.770 397.925,298.354 398.320,296.604 398.716,302.189 399.111,306.441 399.507,303.023 399.902,306.024 400.298,306.024 400.693,309.442 401.089,304.107 401.484,310.526 401.880,315.861 402.275,311.359 402.671,313.944 403.066,317.112 403.462,313.360 403.857,318.946 404.253,316.028 404.648,320.613 405.044,323.114 405.439,326.282 405.835,325.365 406.230,326.365 406.626,332.618 407.021,328.699 407.417,332.367 407.812,329.116 408.208,332.034 408.603,334.868 408.999,333.618 409.394,335.202 409.790,336.452 410.185,337.786 410.581,339.620 410.976,342.455 411.372,344.205 411.767,341.204 412.163,341.288 412.558,340.371 412.954,345.372 413.349,344.872 413.745,346.039 414.140,346.289 414.536,346.873 414.931,348.207 415.327,348.624 415.722,351.041 416.118,353.125 416.513,349.541 416.908,351.041 417.304,354.626 417.699,352.625 418.095,355.626 418.490,353.042 418.886,355.126 419.281,357.627 419.677,356.710 420.072,356.543 420.468,359.628 420.863,358.127 421.259,358.461 421.654,358.961 422.050,359.711 422.445,359.545 422.841,361.379 423.236,361.545 423.632,362.462 424.027,361.962 424.423,362.712 424.818,362.045 425.214,362.045 425.609,364.296 426.005,363.129 426.400,363.546 426.796,364.130 427.191,365.380 427.587,365.297 427.982,365.130 428.378,364.713 428.773,365.297 429.169,366.547 429.564,367.047 429.960,367.881 430.355,366.714 430.751,366.380 431.146,368.881 431.542,368.048 431.937,369.215 432.333,368.381 432.728,368.131 433.124,369.298 433.519,369.715 433.915,369.215 434.310,369.632 434.706,369.215 435.101,370.799 435.497,369.715 435.892,370.966 436.288,371.216 436.683,370.882 437.079,370.966 437.474,371.132 437.870,370.215 438.265,371.132 438.661,371.633 439.056,371.299 439.452,371.716 439.847,371.466 440.243,371.466 440.638,371.216 441.034,371.799 441.429,372.299 441.825,372.216 442.220,372.216 442.616,372.716 443.011,371.633 443.407,372.550 443.802,372.633 444.197,372.299 444.593,372.049 444.988,372.633 445.384,372.800 445.779,372.883 446.175,372.883 446.570,372.800 446.966,372.883 447.361,372.550 447.757,372.883 448.152,373.050 448.548,373.300 448.943,373.133 449.339,373.467 449.734,372.883 450.130,373.383 450.525,373.467 450.921,373.300 451.316,372.883 451.712,373.467 452.107,373.467 452.503,373.633 452.898,373.467 453.294,373.383 453.689,373.467 454.085,373.467 454.480,373.633 454.876,373.550 455.271,373.467 455.667,373.383 456.062,373.467 456.458,373.550 456.853,373.550 457.249,373.633 457.644,373.550 458.040,373.717 458.435,373.383 458.831,373.633 459.226,373.633 459.622,373.800 460.017,373.717 460.413,373.633 460.808,373.717 461.204,373.467 461.599,373.717 461.995,373.717 462.390,373.717 462.786,373.633 463.181,373.550 463.577,373.717 463.972,373.800 464.368,373.800 464.763,373.717 465.159,373.800 465.554,373.717 465.950,373.717 466.345,373.550 466.741,373.800 467.136,373.800 467.532,373.717 467.927,373.717 468.323,373.800 468.718,373.800 469.114,373.717 469.509,373.800 469.905,373.800 470.300,373.800 470.695,373.800 471.091,373.717 471.486,373.717 471.882,373.800 472.277,373.800 472.673,373.800 473.068,373.800 473.464,373.717 473.859,373.800 474.255,373.800 474.650,373.800 475.046,373.800 475.441,373.800 475.837,373.800 476.232,373.800 476.628,373.800 477.023,373.800 477.419,373.800 477.814,373.717 "/>
<g>
</g>
</g>
<g id="ID000003" >
</g>
<g id="ID000004" >
</g>
<g id="ID000005" >
</g>
    </g>
    <g>
      <polyline fill="none" stroke="#000000" stroke-width="0.5pt" stroke-dasharray="none" points="127.050,373.800 127.050,369.460 "/>
      <polyline fill="none" stroke="#000000" stroke-width="0.5pt" stroke-dasharray="none" points="181.300,373.800 181.300,369.460 "/>
      <polyline fill="none" stroke="#000000" stroke-width="0.5pt" stroke-dasharray="none" points="235.550,373.800 235.550,369.460 "/>
      <polyline fill="none" stroke="#000000" stroke-width="0.5pt" stroke-dasharray="none" points="289.800,373.800 289.800,369.460 "/>
      <polyline fill="none" stroke="#000000" stroke-width="0.5pt" stroke-dasharray="none" points="344.050,373.800 344.050,369.460 "/>
      <polyline fill="none" stroke="#000000" stroke-width="0.5pt" stroke-dasharray="none" points="398.300,373.800 398.300,369.460 "/>
      <polyline fill="none" stroke="#000000" stroke-width="0.5pt" stroke-dasharray="none" points="452.550,373.800 452.550,369.460 "/>
      <polyline fill="none" stroke="#000000" stroke-width="0.5pt" stroke-dasharray="none" points="72.800,373.800 506.800,373.800 "/>
      <polyline fill="none" stroke="#000000" stroke-width="0.5pt" stroke-dasharray="none" points="127.050,31.500 127.050,35.840 "/>
      <polyline fill="none" stroke="#000000" stroke-width="0.5pt" stroke-dasharray="none" points="181.300,31.500 181.300,35.840 "/>
      <polyline fill="none" stroke="#000000" stroke-width="0.5pt" stroke-dasharray="none" points="235.550,31.500 235.550,35.840 "/>
      <polyline fill="none" stroke="#000000" stroke-width="0.5pt" stroke-dasharray="none" points="289.800,31.500 289.800,35.840 "/>
      <polyline fill="none" stroke="#000000" stroke-width="0.5pt" stroke-dasharray="none" points="344.050,31.500 344.050,35.840 "/>
      <polyline fill="none" stroke="#000000" stroke-width="0.5pt" stroke-dasharray="none" points="398.300,31.500 398.300,35.840 "/>
      <polyline fill="none" stroke="#000000" stroke-width="0.5pt" stroke-dasharray="none" points="452.550,31.500 452.550,35.840 "/>
      <polyline fill="none" stroke="#000000" stroke-width="0.5pt" stroke-dasharray="none" points="72.800,31.500 506.800,31.500 "/>
  <g transform="translate(72.800,392.446)">
    <g transform="rotate(-0.0)">
      <text x="0.000" y="0.000" font-family="Helvetica" text-anchor="middle" font-size="10pt" fill="#000000" >-2.5</text>
    </g>
  </g>
  <g transform="translate(127.050,392.446)">
    <g transform="rotate(-0.0)">
      <text x="0.000" y="0.000" font-family="Helvetica" text-anchor="middle" font-size="10pt" fill="#000000" >-2</text>
    </g>
  </g>
  <g transform="translate(181.300,392.446)">
    <g transform="rotate(-0.0)">
      <text x="0.000" y="0.000" font-family="Helvetica" text-anchor="middle" font-size="10pt" fill="#000000" >-1.5</text>
    </g>
  </g>
  <g transform="translate(235.550,392.446)">
    <g transform="rotate(-0.0)">
      <text x="0.000" y="0.000" font-family="Helvetica" text-anchor="middle" font-size="10pt" fill="#000000" >-1</text>
    </g>
  </g>
  <g transform="translate(289.800,392.446)">
    <g transform="rotate(-0.0)">
      <text x="0.000" y="0.000" font-family="Helvetica" text-anchor="middle" font-size="10pt" fill="#000000" >-0.5</text>
    </g>
  </g>
  <g transform="translate(344.050,392.446)">
    <g transform="rotate(-0.0)">
      <text x="0.000" y="0.000" font-family="Helvetica" text-anchor="middle" font-size="10pt" fill="#000000" >0</text>
    </g>
  </g>
  <g transform="translate(398.300,392.446)">
    <g transform="rotate(-0.0)">
      <text x="0.000" y="0.000" font-family="Helvetica" text-anchor="middle" font-size="10pt" fill="#000000" >0.5</text>
    </g>
  </g>
  <g transform="translate(452.550,392.446)">
    <g transform="rotate(-0.0)">
      <text x="0.000" y="0.000" font-family="Helvetica" text-anchor="middle" font-size="10pt" fill="#000000" >1</text>
    </g>
  </g>
  <g transform="translate(506.800,392.446)">
    <g transform="rotate(-0.0)">
      <text x="0.000" y="0.000" font-family="Helvetica" text-anchor="middle" font-size="10pt" fill="#000000" >1.5</text>
    </g>
  </g>
      <polyline fill="none" stroke="#000000" stroke-width="0.5pt" stroke-dasharray="none" points="72.800,324.900 77.140,324.900 "/>
      <polyline fill="none" stroke="#000000" stroke-width="0.5pt" stroke-dasharray="none" points="72.800,276.000 77.140,276.000 "/>
      <polyline fill="none" stroke="#000000" stroke-width="0.5pt" stroke-dasharray="none" points="72.800,227.100 77.140,227.100 "/>
      <polyline fill="none" stroke="#000000" stroke-width="0.5pt" stroke-dasharray="none" points="72.800,178.200 77.140,178.200 "/>
      <polyline fill="none" stroke="#000000" stroke-width="0.5pt" stroke-dasharray="none" points="72.800,129.300 77.140,129.300 "/>
      <polyline fill="none" stroke="#000000" stroke-width="0.5pt" stroke-dasharray="none" points="72.800,80.400 77.140,80.400 "/>
      <polyline fill="none" stroke="#000000" stroke-width="0.5pt" stroke-dasharray="none" points="72.800,373.800 72.800,31.500 "/>
      <polyline fill="none" stroke="#000000" stroke-width="0.5pt" stroke-dasharray="none" points="506.800,324.900 502.460,324.900 "/>
      <polyline fill="none" stroke="#000000" stroke-width="0.5pt" stroke-dasharray="none" points="506.800,276.000 502.460,276.000 "/>
      <polyline fill="none" stroke="#000000" stroke-width="0.5pt" stroke-dasharray="none" points="506.800,227.100 502.460,227.100 "/>
      <polyline fill="none" stroke="#000000" stroke-width="0.5pt" stroke-dasharray="none" points="506.800,178.200 502.460,178.200 "/>
      <polyline fill="none" stroke="#000000" stroke-width="0.5pt" stroke-dasharray="none" points="506.800,129.300 502.460,129.300 "/>
      <polyline fill="none" stroke="#000000" stroke-width="0.5pt" stroke-dasharray="none" points="506.800,80.400 502.460,80.400 "/>
      <polyline fill="none" stroke="#000000" stroke-width="0.5pt" stroke-dasharray="none" points="506.800,373.800 506.800,31.500 "/>
  <g transform="translate(64.120,378.300)">
    <g transform="rotate(-0.0)">
      <text x="0.000" y="0.000" font-family="Helvetica" text-anchor="end" font-size="10pt" fill="#000000" >0</text>
    </g>
  </g>
  <g transform="translate(64.120,329.400)">
    <g transform="rotate(-0.0)">
      <text x="0.000" y="0.000" font-family="Helvetica" text-anchor="end" font-size="10pt" fill="#000000" >0.2</text>
    </g>
  </g>
  <g transform="translate(64.120,280.500)">
    <g transform="rotate(-0.0)">
      <text x="0.000" y="0.000" font-family="Helvetica" text-anchor="end" font-size="10pt" fill="#000000" >0.4</text>
    </g>
  </g>
  <g transform="translate(64.120,231.600)">
    <g transform="rotate(-0.0)">
      <text x="0.000" y="0.000" font-family="Helvetica" text-anchor="end" font-size="10pt" fill="#000000" >0.6</text>
    </g>
  </g>
  <g transform="translate(64.120,182.700)">
    <g transform="rotate(-0.0)">
      <text x="0.000" y="0.000" font-family="Helvetica" text-anchor="end" font-size="10pt" fill="#000000" >0.8</text>
    </g>
  </g>
  <g transform="translate(64.120,133.800)">
    <g transform="rotate(-0.0)">
      <text x="0.000" y="0.000" font-family="Helvetica" text-anchor="end" font-size="10pt" fill="#000000" >1</text>
    </g>
  </g>
  <g transform="translate(64.120,84.900)">
    <g transform="rotate(-0.0)">
      <text x="0.000" y="0.000" font-family="Helvetica" text-anchor="end" font-size="10pt" fill="#000000" >1.2</text>
    </g>
  </g>
  <g transform="translate(64.120,36.000)">
    <g transform="rotate(-0.0)">
      <text x="0.000" y="0.000" font-family="Helvetica" text-anchor="end" font-size="10pt" fill="#000000" >1.4</text>
    </g>
  </g>
      <polyline fill="none" stroke="#000000" stroke-width="0.5pt" stroke-dasharray="none" points="72.800,373.800 72.800,370.377 "/>
      <polyline fill="none" stroke="#000000" stroke-width="0.5pt" stroke-dasharray="none" points="72.800,373.800 72.800,373.800 "/>
    </g>
  </g>
  </g>
</svg>
